<?xml version="1.0" standalone="no"?>
<!DOCTYPE svg PUBLIC "-//W3C//DTD SVG 20010904//EN"
 "http://www.w3.org/TR/2001/REC-SVG-20010904/DTD/svg10.dtd">
<svg version="1.0" xmlns="http://www.w3.org/2000/svg"
 width="1063.000000pt" height="1063.000000pt" viewBox="0 0 1063.000000 1063.000000"
 preserveAspectRatio="xMidYMid meet">
<metadata>
Created by potrace 1.14, written by Peter Selinger 2001-2017
</metadata>
<g transform="translate(0.000000,1063.000000) scale(0.100000,-0.100000)"
fill="#000000" stroke="none">
<path d="M2625 10378 c-389 -48 -688 -237 -878 -555 -116 -191 -208 -482 -243
-763 -2 -19 -6 -48 -8 -65 -5 -32 -13 -116 -22 -225 -5 -75 -5 -538 1 -620 2
-30 7 -95 10 -145 4 -49 8 -111 10 -136 4 -61 16 -184 20 -219 2 -15 7 -59 10
-96 4 -37 8 -75 10 -84 2 -8 6 -44 10 -80 4 -36 9 -73 11 -84 2 -10 6 -44 9
-75 4 -31 8 -63 10 -71 2 -8 7 -37 10 -65 3 -27 8 -61 10 -75 6 -33 13 -75 20
-130 7 -47 53 -337 61 -380 2 -14 7 -43 9 -65 3 -22 14 -92 25 -155 11 -63 22
-137 25 -165 4 -27 8 -57 10 -65 2 -8 7 -39 10 -69 4 -30 8 -62 10 -72 2 -10
7 -49 10 -86 4 -37 9 -70 10 -73 2 -3 6 -54 11 -115 22 -320 2 -415 -98 -469
-65 -34 -212 -131 -253 -166 -134 -115 -214 -211 -271 -328 -187 -386 -43
-861 435 -1427 127 -150 355 -383 521 -530 36 -32 83 -74 105 -94 22 -20 72
-62 110 -94 39 -33 79 -66 90 -76 62 -52 184 -146 356 -275 107 -80 199 -149
204 -154 44 -34 517 -354 640 -431 552 -349 1185 -694 1520 -829 368 -148 979
-329 1405 -417 179 -37 186 -38 280 -50 30 -4 58 -9 61 -11 6 -3 142 -20 249
-30 30 -3 69 -7 85 -10 57 -10 540 -12 625 -3 134 14 257 31 315 43 11 3 52
11 91 20 240 51 514 179 699 325 283 224 482 572 540 941 4 25 9 54 12 65 8
42 17 195 17 305 0 115 -11 306 -18 318 -2 4 -7 36 -10 71 -4 36 -9 67 -10 70
-2 3 -7 23 -10 43 -12 77 -47 219 -81 334 -137 456 -361 892 -681 1331 -165
227 -230 381 -239 568 -10 218 63 386 340 780 297 423 357 705 226 1064 -67
182 -186 370 -381 600 -165 194 -500 505 -815 756 -538 429 -1527 1092 -2170
1455 -16 9 -82 47 -146 83 -64 36 -142 80 -175 97 -32 18 -108 58 -169 91
-218 117 -554 278 -755 364 -113 48 -214 91 -225 96 -11 5 -74 28 -140 53
-314 115 -602 194 -830 230 -16 2 -50 8 -75 12 -78 13 -91 13 -285 17 -104 3
-221 0 -260 -5z m1170 -402 c17 -3 62 -10 100 -16 347 -54 866 -259 1380 -545
66 -37 145 -81 175 -97 477 -262 1596 -1008 2220 -1481 299 -227 445 -353 525
-452 22 -28 43 -52 46 -55 24 -22 144 -193 202 -288 86 -142 146 -275 183
-408 24 -85 28 -118 28 -229 1 -109 -3 -141 -22 -200 -56 -169 -185 -336 -332
-430 -97 -62 -92 -62 -184 -1 -437 290 -1129 622 -1681 805 -110 36 -255 81
-280 87 -5 1 -55 13 -110 27 -124 32 -306 71 -405 87 -41 7 -84 14 -95 16 -11
2 -58 5 -105 5 -198 3 -281 -61 -265 -207 3 -32 9 -62 13 -66 4 -4 30 -10 57
-13 64 -7 90 -11 205 -30 52 -8 113 -18 135 -22 35 -5 325 -65 380 -78 307
-75 761 -222 970 -315 22 -9 90 -39 150 -66 408 -179 888 -461 1054 -618 102
-97 115 -140 117 -386 0 -107 4 -226 8 -265 8 -76 46 -237 71 -300 47 -117
131 -286 262 -525 77 -139 244 -481 296 -606 94 -223 163 -452 182 -604 26
-212 26 -535 0 -670 -3 -14 -10 -51 -15 -82 -6 -32 -13 -68 -15 -80 -7 -38
-51 -179 -79 -251 -124 -327 -383 -641 -691 -840 -206 -132 -532 -255 -750
-283 -22 -3 -46 -7 -53 -9 -32 -11 -182 -20 -327 -19 -141 0 -321 11 -335 19
-3 1 -36 6 -75 10 -38 4 -72 8 -75 10 -3 2 -21 6 -40 9 -130 20 -396 86 -580
143 -166 51 -316 100 -345 113 -11 5 -51 20 -90 33 -225 80 -551 232 -768 361
-43 25 -80 46 -82 46 -12 0 -528 308 -750 448 -271 171 -807 530 -825 552 -3
3 -34 26 -70 51 -36 24 -67 46 -70 49 -3 3 -59 45 -125 94 -132 98 -404 312
-420 330 -5 6 -26 23 -45 37 -38 28 -112 94 -254 223 -507 460 -757 843 -770
1180 -13 315 226 607 645 785 l46 19 49 -61 c122 -153 369 -315 689 -452 116
-49 466 -170 524 -180 19 -3 42 -10 52 -16 11 -5 19 -8 19 -5 0 3 15 0 33 -5
17 -6 43 -12 56 -15 12 -3 51 -11 85 -19 33 -7 79 -16 101 -20 23 -3 52 -7 65
-10 25 -5 224 -31 310 -41 25 -3 56 -7 70 -9 14 -2 45 -7 70 -10 51 -7 81 -12
160 -25 145 -24 262 -28 327 -11 33 9 45 19 61 51 22 45 21 84 -4 163 -18 55
-30 63 -99 66 -27 1 -57 4 -65 6 -8 3 -78 13 -155 24 -143 21 -203 30 -241 36
-12 2 -48 7 -80 10 -33 4 -66 9 -74 10 -20 4 -86 13 -135 20 -85 12 -343 57
-410 71 -553 123 -995 371 -1083 607 -11 29 -28 95 -36 147 -16 92 -38 152
-64 179 -51 53 -210 473 -257 681 -2 8 -11 44 -20 80 -9 36 -18 72 -20 80 -2
8 -15 65 -28 125 -21 91 -48 238 -73 385 -2 14 -6 52 -9 85 -3 33 -8 70 -11
82 -25 122 -25 849 1 893 1 3 6 32 9 65 15 126 67 356 118 515 218 681 644
1230 1102 1420 84 35 209 68 286 77 30 3 56 6 58 8 5 4 267 -3 297 -9z"/>
</g>
</svg>
